<svg version="1.1" xmlns="http://www.w3.org/2000/svg" viewBox="-266.2 -1685.5125 10787.620075555898 2775.525"><desc>Created with Snap</desc><defs></defs><g><rect x="-266.2" y="-1685.5125" width="10787.620075555898" height="2775.525" fill="#c4d7f2" style=""></rect><g transform="matrix(34.8147,0,0,34.8147,6904.8351,-2102.0762)"><path d="M60.733,32.344L49.179,20.789L37.624,32.344l11.555,11.556L60.733,32.344z M49.179,22.203l10.141,10.141L49.179,42.485  L39.038,32.344L49.179,22.203z M37.624,71.308l11.555,11.556l11.555-11.556L49.179,59.753L37.624,71.308z M49.179,81.449  L39.038,71.308l10.141-10.141l10.141,10.141L49.179,81.449z M40.679,71.308l8.5,8.501l8.501-8.501l-8.501-8.5L40.679,71.308z   M51.613,66.656l-2.435,2.434l-2.434-2.434l2.434-2.434L51.613,66.656z M49.179,78.395l-7.086-7.087l3.945-3.945l3.141,3.141  l3.142-3.141l3.945,3.945L49.179,78.395z M57.68,32.344l-8.501-8.5l-8.5,8.5l8.5,8.501L57.68,32.344z M46.755,37.006l2.424-2.424  l2.425,2.424l-2.425,2.425L46.755,37.006z M49.179,25.258l7.087,7.086l-3.955,3.955l-3.132-3.131l-3.131,3.131l-3.955-3.955  L49.179,25.258z M8.073,51.996l3.643-3.642l0.521,0.521l0.707-0.707l-1.228-1.228l-5.057,5.056l5.057,5.056L24.387,44.38  l-0.707-0.707L11.716,55.638L8.073,51.996z M33.839,48.509l-3.328,3.327l3.485,3.484l0.707-0.707l-2.778-2.777l2.621-2.62l2.78,2.78  l-7.318,7.317l-0.53-0.529l-0.707,0.707l1.237,1.236l8.732-8.731l-8.677-8.677L16.385,56.998l0.707,0.707l12.972-12.972  L33.839,48.509z M30.063,40.305L11.715,58.652l-6.657-6.656l6.657-6.657l3.318,3.317l0.707-0.707l-4.025-4.024l-8.071,8.071  l8.071,8.07l18.349-18.348l10.277,10.277L30.008,62.328l-6.944-6.944l-0.707,0.707l7.651,7.651l11.747-11.746L30.063,40.305z   M90.629,52.051l-3.643,3.642l-0.521-0.521l-0.707,0.707l1.228,1.228l5.057-5.056l-5.057-5.056L74.315,59.667l0.707,0.707  l11.964-11.965L90.629,52.051z M64.504,55.179l3.343-3.343l-3.128-3.128l3.975-3.975l0.531,0.529l0.707-0.707l-1.238-1.236  l-8.731,8.731l8.677,8.677l13.679-13.679l-0.707-0.707L68.639,59.313L64.504,55.179z M64.012,49.415l2.421,2.421l-2.636,2.636  l-2.421-2.421L64.012,49.415z M86.987,43.98L68.639,62.328L58.361,52.051l10.333-10.332l6.944,6.944l0.707-0.707l-7.651-7.651  L56.947,52.051l11.691,11.691l18.349-18.348l6.656,6.656l-6.656,6.657l-3.318-3.317l-0.707,0.707l4.025,4.024l8.07-8.071  L86.987,43.98z M66.418,38.022l-0.707-0.707L51.965,51.062l-2.006-2.006l13.744-13.744l-0.707-0.707L49.251,48.348L35.416,34.513  l-0.707,0.707l13.835,13.835l-2.007,2.007L32.705,37.229l-0.707,0.707l13.833,13.832L31.946,65.653l0.707,0.707l13.885-13.885  l2.006,2.006L34.671,68.355l0.707,0.707l13.873-13.873l13.791,13.79l0.707-0.707l-13.791-13.79l2.007-2.007L65.78,66.291  l0.707-0.707L52.672,51.769L66.418,38.022z M49.251,53.775l-2.006-2.006l2.007-2.007l2.006,2.006L49.251,53.775z" fill="#292929" style=""></path><desc>Created with Snap</desc><defs></defs></g><g><g transform="matrix(0.5,0,0,-0.5,0,0)"><path d="M768 1409Q741 1409 705 1398Q669 1387 631 1356Q594 1326 558 1271Q522 1216 493 1128Q465 1041 447 916Q430 791 430 621Q430 459 447 340Q465 221 494 137Q524 54 562 1Q600 -52 642 -82Q684 -111 726 -122Q768 -133 805 -133Q844 -133 884 -123Q924 -113 962 -94Q1001 -75 1036 -48Q1072 -21 1102 14L1147 -31Q1117 -68 1075 -107Q1033 -145 977 -177Q922 -208 853 -228Q784 -248 700 -248Q569 -248 456 -198Q344 -148 260 -43Q177 63 129 228Q82 393 82 623Q82 839 132 1002Q182 1165 268 1274Q354 1384 470 1439Q586 1495 717 1495Q804 1495 875 1478Q947 1462 999 1430Q1051 1399 1079 1352Q1108 1306 1108 1247Q1108 1220 1099 1190Q1090 1161 1071 1136Q1053 1112 1026 1096Q999 1081 963 1081Q931 1081 913 1095Q896 1109 887 1132Q879 1155 876 1184Q874 1214 873 1245Q872 1276 868 1305Q865 1335 854 1358Q844 1381 824 1395Q804 1409 768 1409ZM1691 274L1691 518Q1691 543 1675 556Q1659 569 1634 569Q1599 569 1567 553Q1536 537 1512 506Q1488 475 1474 429Q1460 384 1460 324Q1460 266 1468 228Q1477 190 1491 167Q1506 145 1525 136Q1544 127 1565 127Q1591 127 1614 140Q1637 154 1654 175Q1671 196 1681 222Q1691 248 1691 274ZM1532 956Q1498 956 1469 948Q1440 940 1419 928Q1398 916 1386 901Q1374 887 1374 874Q1374 859 1389 852Q1405 846 1424 837Q1443 829 1458 813Q1474 798 1474 766Q1474 745 1465 727Q1457 710 1442 696Q1428 683 1408 675Q1389 668 1368 668Q1312 668 1277 706Q1243 744 1243 807Q1243 868 1275 911Q1307 955 1358 983Q1410 1011 1475 1024Q1540 1038 1605 1038Q1683 1038 1754 1021Q1825 1004 1879 967Q1934 930 1966 873Q1999 816 1999 735L1999 170Q1999 161 2000 150Q2001 139 2005 130Q2009 121 2017 115Q2025 109 2040 109Q2058 109 2073 122Q2089 136 2101 150L2126 129Q2111 108 2090 83Q2069 58 2039 36Q2009 14 1969 -1Q1929 -16 1878 -16Q1815 -16 1766 21Q1717 59 1702 137Q1670 94 1635 65Q1601 36 1565 18Q1529 0 1492 -8Q1456 -16 1419 -16Q1371 -16 1326 -1Q1281 14 1245 46Q1210 79 1188 131Q1167 183 1167 258Q1167 349 1203 407Q1239 465 1297 504Q1356 544 1430 572Q1505 600 1583 631Q1641 654 1667 699Q1694 745 1694 793Q1694 867 1650 911Q1607 956 1532 956ZM2580 827Q2618 885 2661 932Q2679 952 2700 971Q2721 990 2743 1005Q2766 1020 2790 1029Q2814 1038 2838 1038Q2889 1038 2918 1007Q2947 977 2947 922Q2947 888 2941 856Q2936 825 2920 780L2892 780Q2886 811 2864 831Q2842 852 2800 852Q2769 852 2739 840Q2709 829 2680 812Q2652 795 2626 775Q2601 755 2580 737L2580 88Q2580 75 2576 57Q2572 39 2556 23Q2541 7 2510 -5Q2480 -16 2427 -16Q2374 -16 2343 -4Q2313 9 2297 26Q2281 43 2277 61Q2273 79 2273 90L2273 862Q2273 891 2259 912Q2246 934 2214 934Q2197 934 2185 928Q2173 922 2159 911L2138 936Q2161 955 2189 973Q2218 992 2251 1006Q2284 1020 2322 1029Q2360 1038 2402 1038Q2445 1038 2475 1026Q2506 1015 2525 996Q2545 978 2556 955Q2567 932 2572 908Q2578 885 2579 863Q2580 842 2580 827ZM3637 498Q3637 585 3628 661Q3619 738 3599 795Q3579 853 3548 886Q3517 920 3473 920Q3439 920 3415 903Q3392 887 3377 866Q3362 845 3355 824Q3348 804 3348 797L3348 498Q3348 280 3384 181Q3421 82 3492 82Q3567 82 3602 183Q3637 284 3637 498ZM3041 485L3041 1380Q3041 1409 3027 1430Q3014 1452 2982 1452Q2965 1452 2952 1446Q2940 1441 2926 1430L2906 1454Q2929 1473 2957 1491Q2986 1510 3019 1524Q3052 1538 3090 1547Q3128 1556 3170 1556Q3228 1556 3263 1538Q3299 1521 3317 1495Q3336 1470 3342 1440Q3348 1411 3348 1386L3348 940Q3360 951 3379 967Q3398 984 3427 1000Q3456 1016 3496 1027Q3537 1038 3592 1038Q3656 1038 3720 1008Q3784 979 3835 916Q3886 853 3918 754Q3950 655 3950 516Q3950 407 3920 310Q3891 213 3833 140Q3775 68 3688 26Q3601 -16 3486 -16Q3361 -16 3275 24Q3190 65 3138 133Q3086 202 3063 293Q3041 384 3041 485ZM4079 512Q4079 643 4117 741Q4155 840 4218 906Q4282 972 4366 1005Q4450 1038 4542 1038Q4634 1038 4718 1007Q4802 977 4865 914Q4929 851 4967 754Q5005 658 5005 526Q5005 395 4967 294Q4929 193 4865 124Q4802 55 4718 19Q4634 -16 4542 -16Q4450 -16 4366 17Q4282 51 4218 117Q4155 183 4117 282Q4079 381 4079 512ZM4694 522Q4694 602 4688 676Q4683 751 4667 809Q4651 867 4621 901Q4591 936 4542 936Q4493 936 4463 899Q4433 863 4417 803Q4401 744 4396 668Q4391 592 4391 512Q4391 432 4396 355Q4401 279 4417 219Q4433 159 4463 122Q4493 86 4542 86Q4591 86 4621 124Q4651 162 4667 224Q4683 286 4688 364Q4694 442 4694 522ZM5780 498Q5780 624 5768 699Q5757 775 5738 814Q5719 854 5696 866Q5673 879 5649 879Q5620 879 5597 863Q5575 848 5558 828Q5542 808 5530 788Q5519 768 5511 758L5511 90Q5511 77 5507 58Q5503 40 5487 23Q5472 7 5441 -5Q5411 -16 5358 -16Q5305 -16 5274 -4Q5244 9 5228 26Q5212 43 5208 61Q5204 79 5204 90L5204 862Q5204 891 5190 912Q5177 934 5145 934Q5128 934 5116 928Q5104 922 5090 911L5069 936Q5092 955 5120 973Q5149 992 5182 1006Q5215 1020 5253 1029Q5291 1038 5333 1038Q5398 1038 5434 1016Q5470 995 5487 965Q5504 935 5507 902Q5511 870 5511 848Q5548 901 5595 943Q5614 961 5637 978Q5661 995 5687 1008Q5714 1022 5743 1030Q5773 1038 5804 1038Q5872 1038 5924 1012Q5977 986 6013 925Q6049 864 6068 763Q6087 663 6087 514Q6087 369 6061 262Q6035 155 5993 80Q5951 5 5898 -43Q5845 -90 5791 -117Q5737 -144 5687 -155Q5638 -165 5602 -166L5591 -125Q5621 -118 5646 -103Q5672 -88 5693 -59Q5714 -30 5730 14Q5746 59 5757 126Q5769 193 5774 284Q5780 376 5780 498ZM7378 -16Q7294 -16 7254 19Q7214 54 7214 131L7214 1401Q7182 1398 7134 1389Q7087 1381 7035 1365Q6983 1349 6931 1326Q6879 1304 6838 1274Q6797 1245 6771 1208Q6745 1171 6745 1126Q6745 1094 6753 1075Q6762 1056 6773 1046Q6784 1037 6795 1034Q6807 1032 6812 1032Q6837 1032 6853 1040Q6869 1049 6882 1058Q6895 1068 6906 1076Q6918 1085 6933 1085Q6945 1085 6958 1079Q6972 1074 6983 1062Q6995 1050 7003 1030Q7011 1011 7011 983Q7011 943 6995 914Q6980 885 6955 865Q6931 846 6899 836Q6868 827 6837 827Q6789 827 6750 843Q6712 860 6685 889Q6658 918 6644 957Q6630 996 6630 1040Q6630 1157 6694 1242Q6759 1328 6871 1384Q6983 1441 7132 1468Q7281 1495 7451 1495Q7532 1495 7609 1493Q7686 1492 7749 1489Q7813 1486 7859 1482Q7905 1478 7926 1473Q7946 1468 7958 1458Q7970 1449 7976 1437Q7982 1425 7984 1411Q7986 1398 7986 1384Q7986 1373 7983 1358Q7980 1344 7974 1331Q7968 1318 7959 1309Q7950 1300 7937 1300Q7929 1300 7920 1307Q7912 1314 7897 1324Q7882 1334 7856 1347Q7831 1360 7789 1371Q7748 1382 7687 1391Q7627 1400 7541 1403L7541 131Q7541 54 7501 19Q7461 -16 7378 -16ZM8266 827Q8304 885 8347 932Q8365 952 8386 971Q8407 990 8429 1005Q8452 1020 8476 1029Q8500 1038 8524 1038Q8575 1038 8604 1007Q8633 977 8633 922Q8633 888 8627 856Q8622 825 8606 780L8578 780Q8572 811 8550 831Q8528 852 8486 852Q8455 852 8425 840Q8395 829 8366 812Q8338 795 8312 775Q8287 755 8266 737L8266 88Q8266 75 8262 57Q8258 39 8242 23Q8227 7 8196 -5Q8166 -16 8113 -16Q8060 -16 8029 -4Q7999 9 7983 26Q7967 43 7963 61Q7959 79 7959 90L7959 862Q7959 891 7945 912Q7932 934 7900 934Q7883 934 7871 928Q7859 922 7845 911L7824 936Q7847 955 7875 973Q7904 992 7937 1006Q7970 1020 8008 1029Q8046 1038 8088 1038Q8131 1038 8161 1026Q8192 1015 8211 996Q8231 978 8242 955Q8253 932 8258 908Q8264 885 8265 863Q8266 842 8266 827ZM9210 274L9210 518Q9210 543 9194 556Q9178 569 9153 569Q9118 569 9086 553Q9055 537 9031 506Q9007 475 8993 429Q8979 384 8979 324Q8979 266 8987 228Q8996 190 9010 167Q9025 145 9044 136Q9063 127 9084 127Q9110 127 9133 140Q9156 154 9173 175Q9190 196 9200 222Q9210 248 9210 274ZM9051 956Q9017 956 8988 948Q8959 940 8938 928Q8917 916 8905 901Q8893 887 8893 874Q8893 859 8908 852Q8924 846 8943 837Q8962 829 8977 813Q8993 798 8993 766Q8993 745 8984 727Q8976 710 8961 696Q8947 683 8927 675Q8908 668 8887 668Q8831 668 8796 706Q8762 744 8762 807Q8762 868 8794 911Q8826 955 8877 983Q8929 1011 8994 1024Q9059 1038 9124 1038Q9202 1038 9273 1021Q9344 1004 9398 967Q9453 930 9485 873Q9518 816 9518 735L9518 170Q9518 161 9519 150Q9520 139 9524 130Q9528 121 9536 115Q9544 109 9559 109Q9577 109 9592 122Q9608 136 9620 150L9645 129Q9630 108 9609 83Q9588 58 9558 36Q9528 14 9488 -1Q9448 -16 9397 -16Q9334 -16 9285 21Q9236 59 9221 137Q9189 94 9154 65Q9120 36 9084 18Q9048 0 9011 -8Q8975 -16 8938 -16Q8890 -16 8845 -1Q8800 14 8764 46Q8729 79 8707 131Q8686 183 8686 258Q8686 349 8722 407Q8758 465 8816 504Q8875 544 8949 572Q9024 600 9102 631Q9160 654 9186 699Q9213 745 9213 793Q9213 867 9169 911Q9126 956 9051 956ZM10415 692Q10384 692 10363 701Q10342 711 10329 727Q10316 743 10310 762Q10304 782 10304 803Q10304 830 10307 855Q10311 880 10308 900Q10306 920 10293 932Q10280 944 10247 944Q10212 944 10173 924Q10134 904 10102 861Q10070 818 10049 750Q10028 683 10028 588Q10028 483 10047 396Q10067 310 10106 249Q10145 188 10203 154Q10261 121 10339 121Q10374 121 10405 129Q10437 137 10465 151Q10493 165 10518 183Q10544 202 10568 223L10593 199Q10570 168 10534 131Q10498 94 10447 61Q10396 29 10328 7Q10260 -14 10173 -14Q10086 -14 10003 19Q9921 53 9857 117Q9793 181 9754 272Q9716 364 9716 481Q9716 572 9739 648Q9762 725 9801 787Q9841 849 9893 896Q9946 943 10004 974Q10062 1006 10122 1022Q10183 1038 10239 1038Q10313 1038 10368 1021Q10423 1004 10459 976Q10496 948 10514 911Q10532 875 10532 836Q10532 807 10524 780Q10517 754 10502 734Q10488 715 10466 703Q10444 692 10415 692ZM11037 1391L11037 766Q11072 813 11112 861Q11152 910 11198 949Q11244 988 11298 1013Q11352 1038 11416 1038Q11473 1038 11511 1015Q11549 993 11572 961Q11596 930 11605 896Q11615 862 11615 838Q11615 794 11603 746Q11592 699 11564 652Q11537 606 11491 562Q11445 519 11375 483Q11469 284 11558 140Q11647 -3 11729 -96Q11812 -188 11888 -232Q11964 -276 12033 -276Q12045 -276 12057 -273Q12069 -270 12079 -266Q12090 -262 12102 -256L12121 -291Q12094 -306 12066 -320Q12038 -333 12002 -343Q11966 -353 11919 -359Q11872 -365 11807 -365Q11748 -365 11690 -351Q11633 -337 11575 -301Q11517 -265 11457 -205Q11398 -145 11335 -53Q11273 39 11207 166Q11141 293 11070 463Q11166 534 11221 594Q11276 655 11304 704Q11332 753 11339 791Q11346 829 11346 856Q11346 860 11345 869Q11344 879 11338 888Q11333 897 11322 904Q11312 911 11293 911Q11256 911 11218 879Q11180 848 11145 801Q11111 755 11083 701Q11055 648 11037 604L11037 88Q11037 75 11032 57Q11028 39 11011 23Q10995 7 10963 -5Q10932 -16 10879 -16Q10826 -16 10796 -4Q10766 9 10751 26Q10737 43 10733 61Q10730 79 10730 90L10730 1380Q10730 1409 10716 1430Q10703 1452 10671 1452Q10654 1452 10641 1446Q10629 1441 10615 1430L10595 1454Q10618 1473 10646 1491Q10674 1510 10707 1524Q10741 1538 10779 1547Q10817 1556 10859 1556Q10924 1556 10960 1538Q10996 1521 11013 1495Q11030 1470 11033 1441Q11037 1413 11037 1391ZM12468 692L12073 459Q12073 427 12082 389Q12092 352 12110 314Q12128 276 12154 241Q12181 207 12215 180Q12250 153 12292 137Q12334 121 12384 121Q12419 121 12449 129Q12479 137 12505 151Q12531 165 12555 183Q12579 202 12603 223L12628 199Q12605 168 12569 131Q12533 94 12482 61Q12431 29 12363 7Q12295 -14 12208 -14Q12121 -14 12038 17Q11956 49 11892 112Q11828 175 11789 269Q11751 363 11751 489Q11751 580 11774 656Q11797 732 11836 793Q11876 854 11928 900Q11981 946 12039 976Q12097 1007 12157 1022Q12218 1038 12274 1038Q12348 1038 12403 1022Q12458 1006 12494 979Q12531 952 12549 916Q12567 881 12567 842Q12567 795 12540 757Q12513 720 12468 692ZM12063 541L12274 662Q12287 670 12295 677Q12304 685 12309 695Q12314 706 12316 721Q12319 737 12319 760Q12319 785 12313 815Q12308 846 12295 873Q12282 900 12262 918Q12242 936 12214 936Q12178 936 12152 914Q12127 893 12110 859Q12094 825 12084 781Q12075 738 12070 694Q12065 650 12064 609Q12063 569 12063 541ZM13082 827Q13120 885 13163 932Q13181 952 13202 971Q13223 990 13245 1005Q13268 1020 13292 1029Q13316 1038 13340 1038Q13391 1038 13420 1007Q13449 977 13449 922Q13449 888 13443 856Q13438 825 13422 780L13394 780Q13388 811 13366 831Q13344 852 13302 852Q13271 852 13241 840Q13211 829 13182 812Q13154 795 13128 775Q13103 755 13082 737L13082 88Q13082 75 13078 57Q13074 39 13058 23Q13043 7 13012 -5Q12982 -16 12929 -16Q12876 -16 12845 -4Q12815 9 12799 26Q12783 43 12779 61Q12775 79 12775 90L12775 862Q12775 891 12761 912Q12748 934 12716 934Q12699 934 12687 928Q12675 922 12661 911L12640 936Q12663 955 12691 973Q12720 992 12753 1006Q12786 1020 12824 1029Q12862 1038 12904 1038Q12947 1038 12977 1026Q13008 1015 13027 996Q13047 978 13058 955Q13069 932 13074 908Q13080 885 13081 863Q13082 842 13082 827Z" fill="#292929" style=""></path></g></g></g></svg>